<?xml version="1.0" encoding="UTF-8"?>
<svg width="16px" height="16px" viewBox="0 0 16 16" version="1.1" xmlns="http://www.w3.org/2000/svg" xmlns:xlink="http://www.w3.org/1999/xlink">
    <title>Group</title>
    <g id="Page-1" stroke="none" stroke-width="1" fill="none" fill-rule="evenodd">
        <g id="Desktop-Full-HD" transform="translate(-32.000000, -1030.000000)" fill="#FFFFFF" fill-rule="nonzero">
            <g id="Group-2-Copy-3" transform="translate(16.000000, 1012.000000)">
                <g id="Group" transform="translate(16.000000, 18.000000)">
                    <path d="M1.49963388,0 L5.62362704,0 C5.8298267,0 5.99853551,0.225 5.99853551,0.5 L5.99853551,0.833333333 C5.99853551,1.10833333 5.8298267,1.33333333 5.62362704,1.33333333 L1.49963388,1.33333333 C1.224701,1.33333333 0.999755919,1.63333333 0.999755919,2 L0.999755919,14 C0.999755919,14.3666667 1.224701,14.6666667 1.49963388,14.6666667 L5.62362704,14.6666667 C5.8298267,14.6666667 5.99853551,14.8916667 5.99853551,15.1666667 L5.99853551,15.5 C5.99853551,15.775 5.8298267,16 5.62362704,16 L1.49963388,16 C0.671711008,16 0,15.1041667 0,14 L0,2 C0,0.895833333 0.671711008,0 1.49963388,0 Z M10.2162558,0.8125 L9.99443495,1.10833333 C9.8475958,1.30416667 9.8475958,1.62083333 9.99443495,1.81666667 L14.1184281,7.29166667 L5.37368806,7.29166667 C5.16748841,7.29166667 4.99877959,7.51666667 4.99877959,7.79166667 L4.99877959,8.20833333 C4.99877959,8.48333333 5.16748841,8.70833333 5.37368806,8.70833333 L14.1184281,8.70833333 L9.99755919,14.1833333 C9.85072004,14.3791667 9.85072004,14.6958333 9.99755919,14.8916667 L10.21938,15.1875 C10.3662192,15.3833333 10.6036612,15.3833333 10.7505004,15.1875 L15.8898706,8.35416667 C16.0367098,8.15833333 16.0367098,7.84166667 15.8898706,7.64583333 L10.7473761,0.8125 C10.600537,0.616666667 10.3630949,0.616666667 10.2162558,0.8125 Z" id="Shape"></path>
                </g>
            </g>
        </g>
    </g>
</svg>