<?xml version="1.0" encoding="UTF-8"?>
<svg width="16px" height="16px" viewBox="0 0 16 16" version="1.1" xmlns="http://www.w3.org/2000/svg" xmlns:xlink="http://www.w3.org/1999/xlink">
    <title>Group</title>
    <g id="Page-1" stroke="none" stroke-width="1" fill="none" fill-rule="evenodd">
        <g id="Desktop-Full-HD" transform="translate(-32.000000, -321.000000)" fill="#FFFFFF" fill-rule="nonzero">
            <g id="Group-2-Copy-2" transform="translate(16.000000, 303.000000)">
                <g id="Group" transform="translate(16.000000, 18.000000)">
                    <path d="M11.2,9 C10.175,9 9.68214286,9.5 8,9.5 C6.31785714,9.5 5.82857143,9 4.8,9 C2.15,9 0,10.88125 0,13.2 L0,14.5 C0,15.328125 0.767857143,16 1.71428571,16 L14.2857143,16 C15.2321429,16 16,15.328125 16,14.5 L16,13.2 C16,10.88125 13.85,9 11.2,9 Z M14.8571429,14.5 C14.8571429,14.775 14.6,15 14.2857143,15 L1.71428571,15 C1.4,15 1.14285714,14.775 1.14285714,14.5 L1.14285714,13.2 C1.14285714,11.434375 2.78214286,10 4.8,10 C5.5,10 6.19642857,10.5 8,10.5 C9.8,10.5 10.5,10 11.2,10 C13.2178571,10 14.8571429,11.434375 14.8571429,13.2 L14.8571429,14.5 Z M8,8 C10.525,8 12.5714286,6.209375 12.5714286,4 C12.5714286,1.790625 10.525,0 8,0 C5.475,0 3.42857143,1.790625 3.42857143,4 C3.42857143,6.209375 5.475,8 8,8 Z M8,1 C9.88928571,1 11.4285714,2.346875 11.4285714,4 C11.4285714,5.653125 9.88928571,7 8,7 C6.11071429,7 4.57142857,5.653125 4.57142857,4 C4.57142857,2.346875 6.11071429,1 8,1 Z" id="Shape"></path>
                </g>
            </g>
        </g>
    </g>
</svg>