<?xml version="1.0" encoding="UTF-8"?>
<svg width="16px" height="16px" viewBox="0 0 16 16" version="1.1" xmlns="http://www.w3.org/2000/svg" xmlns:xlink="http://www.w3.org/1999/xlink">
    <title>Group</title>
    <g id="Page-1" stroke="none" stroke-width="1" fill="none" fill-rule="evenodd">
        <g id="Desktop-Full-HD" transform="translate(-32.000000, -211.000000)" fill="#FFFFFF" fill-rule="nonzero">
            <g id="Group-2" transform="translate(16.000000, 193.000000)">
                <g id="Group" transform="translate(16.000000, 18.000000)">
                    <path d="M11.7307061,8 C11.7307061,7.54293103 12.065936,7.17241379 12.4794745,7.17241379 C12.8930131,7.17241379 13.228243,7.54293103 13.228243,8 C13.228243,8.45706897 12.8930131,8.82758621 12.4794745,8.82758621 C12.065936,8.82758621 11.7307061,8.45706897 11.7307061,8 Z M10.4827586,8.82758621 C10.8962972,8.82758621 11.2315271,8.45706897 11.2315271,8 C11.2315271,7.54293103 10.8962972,7.17241379 10.4827586,7.17241379 C10.06922,7.17241379 9.73399015,7.54293103 9.73399015,8 C9.73399015,8.45706897 10.06922,8.82758621 10.4827586,8.82758621 Z M15.9737274,4.4137931 C15.9737274,4.8377931 15.8293087,5.22437931 15.5921051,5.51724138 C15.8293087,5.81010345 15.9737274,6.19668966 15.9737274,6.62068966 L15.9737274,9.37931034 C15.9737274,9.80331034 15.8293087,10.1898966 15.5921051,10.4827586 C15.8293087,10.7756207 15.9737274,11.1622069 15.9737274,11.5862069 L15.9737274,14.3448276 C15.9737274,15.2589655 15.3032677,16 14.4761905,16 L1.49753695,16 C0.67045977,16 0,15.2589655 0,14.3448276 L0,11.5862069 C0,11.1622069 0.144418719,10.7756207 0.381622332,10.4827586 C0.144418719,10.1898966 0,9.80331034 0,9.37931034 L0,6.62068966 C0,6.19668966 0.144418719,5.81010345 0.381622332,5.51724138 C0.144418719,5.22437931 0,4.8377931 0,4.4137931 L0,1.65517241 C0,0.741034483 0.67045977,0 1.49753695,0 L14.4761905,0 C15.3032677,0 15.9737274,0.741034483 15.9737274,1.65517241 L15.9737274,4.4137931 Z M0.998357964,4.4137931 C0.998357964,4.718 1.22230213,4.96551724 1.49753695,4.96551724 L14.4761905,4.96551724 C14.7514253,4.96551724 14.9753695,4.718 14.9753695,4.4137931 L14.9753695,1.65517241 C14.9753695,1.35096552 14.7514253,1.10344828 14.4761905,1.10344828 L1.49753695,1.10344828 C1.22230213,1.10344828 0.998357964,1.35096552 0.998357964,1.65517241 L0.998357964,4.4137931 Z M14.4761905,6.06896552 L1.49753695,6.06896552 C1.22230213,6.06896552 0.998357964,6.31648276 0.998357964,6.62068966 L0.998357964,9.37931034 C0.998357964,9.68351724 1.22230213,9.93103448 1.49753695,9.93103448 L14.4761905,9.93103448 C14.7514253,9.93103448 14.9753695,9.68351724 14.9753695,9.37931034 L14.9753695,6.62068966 C14.9753695,6.31648276 14.7514253,6.06896552 14.4761905,6.06896552 Z M14.9753695,11.5862069 C14.9753695,11.282 14.7514253,11.0344828 14.4761905,11.0344828 L1.49753695,11.0344828 C1.22230213,11.0344828 0.998357964,11.282 0.998357964,11.5862069 L0.998357964,14.3448276 C0.998357964,14.6490345 1.22230213,14.8965517 1.49753695,14.8965517 L14.4761905,14.8965517 C14.7514253,14.8965517 14.9753695,14.6490345 14.9753695,14.3448276 L14.9753695,11.5862069 Z M12.4794745,3.86206897 C12.8930131,3.86206897 13.228243,3.49155172 13.228243,3.03448276 C13.228243,2.57741379 12.8930131,2.20689655 12.4794745,2.20689655 C12.065936,2.20689655 11.7307061,2.57741379 11.7307061,3.03448276 C11.7307061,3.49155172 12.065936,3.86206897 12.4794745,3.86206897 Z M10.4827586,3.86206897 C10.8962972,3.86206897 11.2315271,3.49155172 11.2315271,3.03448276 C11.2315271,2.57741379 10.8962972,2.20689655 10.4827586,2.20689655 C10.06922,2.20689655 9.73399015,2.57741379 9.73399015,3.03448276 C9.73399015,3.49155172 10.06922,3.86206897 10.4827586,3.86206897 Z M12.4794745,12.137931 C12.065936,12.137931 11.7307061,12.5084483 11.7307061,12.9655172 C11.7307061,13.4225862 12.065936,13.7931034 12.4794745,13.7931034 C12.8930131,13.7931034 13.228243,13.4225862 13.228243,12.9655172 C13.228243,12.5084483 12.8930131,12.137931 12.4794745,12.137931 Z M10.4827586,12.137931 C10.06922,12.137931 9.73399015,12.5084483 9.73399015,12.9655172 C9.73399015,13.4225862 10.06922,13.7931034 10.4827586,13.7931034 C10.8962972,13.7931034 11.2315271,13.4225862 11.2315271,12.9655172 C11.2315271,12.5084483 10.8962972,12.137931 10.4827586,12.137931 Z" id="Shape"></path>
                </g>
            </g>
        </g>
    </g>
</svg>