<?xml version="1.0" encoding="UTF-8"?>
<svg width="16px" height="16px" viewBox="0 0 16 16" version="1.1" xmlns="http://www.w3.org/2000/svg" xmlns:xlink="http://www.w3.org/1999/xlink">
    <title>Group</title>
    <g id="Page-1" stroke="none" stroke-width="1" fill="none" fill-rule="evenodd">
        <g id="Desktop-Full-HD" transform="translate(-32.000000, -266.000000)" fill="#FFFFFF" fill-rule="nonzero">
            <g id="Group-2-Copy" transform="translate(16.000000, 248.000000)">
                <g id="Group" transform="translate(16.000000, 18.000000)">
                    <path d="M12,8 C11.4478125,8 11,8.51178571 11,9.14285714 C11,9.77392857 11.4478125,10.2857143 12,10.2857143 C12.5521875,10.2857143 13,9.77392857 13,9.14285714 C13,8.51178571 12.5521875,8 12,8 Z M14.5,2.28571429 L14,2.28571429 L14,1.71428571 C14,0.7675 13.3284375,0 12.5,0 L3,0 C1.343125,0 0,1.535 0,3.42857143 L0,12.5714286 C0,14.465 1.343125,16 3,16 L14,16 C15.1046875,16 16,14.9767857 16,13.7142857 L16,4 C16,3.05321429 15.3284375,2.28571429 14.5,2.28571429 Z M15,13.7142857 C15,14.3442857 14.55125,14.8571429 14,14.8571429 L3,14.8571429 C1.8971875,14.8571429 1,13.8317857 1,12.5714286 L1,3.42857143 C1,2.16821429 1.8971875,1.14285714 3,1.14285714 L12.5,1.14285714 C12.775625,1.14285714 13,1.39928571 13,1.71428571 L13,2.28571429 L3.5,2.28571429 C3.22375,2.28571429 3,2.54142857 3,2.85714286 C3,3.17285714 3.22375,3.42857143 3.5,3.42857143 L14.5,3.42857143 C14.775625,3.42857143 15,3.685 15,4 L15,13.7142857 Z" id="Shape"></path>
                </g>
            </g>
        </g>
    </g>
</svg>